#!OML:ASF G:\JayActor3\Patient Classification 1\Patient 1\Session 5\male.ASF
:FULLY-SPECIFIED
:DEGREES
961
root -36.7352 18.0919 -4.81191 140.55 95.365 138.815
lowerback 1.33883 -0.131938 4.15882
upperback -0.0588121 -0.112742 -0.468925
thorax -0.820435 -0.0745962 -2.81173
lowerneck -6.14064 0.729545 2.14596
upperneck 14.7961 0.728768 1.24262
head 5.47368 0.629408 0.0883897
rclavicle -1.00138e-014 -4.37326e-015
rhumerus -36.4449 -5.57263 -86.121
rradius 27.0291
rwrist 1.23034
rhand -21.2752 -9.6801
rfingers 7.12502
rthumb 5.10866 -39.5985
lclavicle -1.00138e-014 -4.37326e-015
lhumerus -36.1873 14.0883 77.6247
lradius 18.557
lwrist 13.2567
lhand -18.0894 11.2389
lfingers 7.12502
lthumb 8.18402 41.0604
rfemur 7.43183 6.55686 28.0662
rtibia 24.6164
rfoot 15.7493 -9.09223
rtoes -0.541415
lfemur -15.1107 7.43 -18.6759
ltibia 20.8814
lfoot 16.8943 -12.0223
ltoes -21.2371
962
root -36.8501 18.0976 -4.80123 140.719 95.3608 138.997
lowerback 1.50493 -0.131562 4.10258
upperback -0.00226745 -0.106601 -0.467788
thorax -0.854904 -0.0710232 -2.77894
lowerneck -6.10784 0.721247 2.13639
upperneck 14.712 0.718542 1.24494
head 5.44176 0.622204 0.0894903
rclavicle 5.8393e-015 -3.57812e-015
rhumerus -36.3512 -5.44844 -86.2332
rradius 27.1409
rwrist 1.1667
rhand -21.2785 -9.68359
rfingers 7.12502
rthumb 5.10547 -39.6021
lclavicle 5.8393e-015 -3.57812e-015
lhumerus -36.1143 14.054 77.702
lradius 18.6047
lwrist 13.2803
lhand -18.1266 11.2306
lfingers 7.12502
lthumb 8.14815 41.0535
rfemur 7.22135 6.54384 28.1221
rtibia 24.5163
rfoot 15.193 -8.73151
rtoes -1.43911
lfemur -15.507 7.20755 -18.6664
ltibia 20.7307
lfoot 17.6102 -11.7389
ltoes -21.4767
963
root -36.9653 18.1044 -4.79035 140.689 95.3409 138.968
lowerback 1.66562 -0.137896 4.05536
upperback 0.0528639 -0.109579 -0.467399
thorax -0.888523 -0.0720352 -2.75182
lowerneck -6.08564 0.71389 2.1212
upperneck 14.6389 0.708305 1.25869
head 5.41503 0.615704 0.0951868
rclavicle 1.23246e-014 1.19271e-015
rhumerus -36.2688 -5.30866 -86.3535
rradius 27.265
rwrist 1.09196
rhand -21.2795 -9.74318
rfingers 7.12502
rthumb 5.10444 -39.6617
lclavicle 1.23246e-014 1.19271e-015
lhumerus -36.0469 14.0361 77.763
lradius 18.6464
lwrist 13.2962
lhand -18.1771 11.2076
lfingers 7.12502
lthumb 8.0994 41.0324
rfemur 7.00811 6.55947 28.1969
rtibia 24.402
rfoot 14.6182 -8.43224
rtoes -2.27707
lfemur -15.9376 7.03188 -18.6568
ltibia 20.5935
lfoot 18.4197 -11.415
ltoes -21.5016
964
root -37.0807 18.1122 -4.77937 140.446 95.312 138.714
lowerback 1.82904 -0.147667 4.02947
upperback 0.0928505 -0.116472 -0.471277
thorax -0.939592 -0.0757078 -2.74096
lowerneck -6.04165 0.695141 2.08189
upperneck 14.5738 0.681972 1.30497
head 5.38678 0.602598 0.113924
rclavicle -1.47846e-014 5.56597e-015
rhumerus -36.213 -5.19693 -86.4643
rradius 27.3751
rwrist 1.04181
rhand -21.2713 -9.78436
rfingers 7.12502
rthumb 5.11244 -39.7027
lclavicle -1.47846e-014 5.56597e-015
lhumerus -36.0071 14.002 77.8101
lradius 18.6895
lwrist 13.3154
lhand -18.2416 11.2017
lfingers 7.12502
lthumb 8.03718 41.0289
rfemur 6.79153 6.59999 28.2923
rtibia 24.267
rfoot 14.0427 -8.2088
rtoes -3.035
lfemur -16.398 6.89061 -18.6357
ltibia 20.4722
lfoot 19.2941 -11.0632
ltoes -21.3219
965
root -37.196 18.1208 -4.76829 139.917 95.2679 138.154
lowerback 1.97532 -0.165239 4.01975
upperback 0.126235 -0.134091 -0.473609
thorax -0.988688 -0.084864 -2.73729
lowerneck -6.00754 0.674405 2.03431
upperneck 14.5274 0.652321 1.36117
head 5.36603 0.588498 0.137034
rclavicle 1.51573e-015 -5.96354e-015
rhumerus -36.1621 -5.10863 -86.5636
rradius 27.4671
rwrist 1.01201
rhand -21.2593 -9.8328
rfingers 7.12502
rthumb 5.12399 -39.7508
lclavicle 1.51573e-015 -5.96354e-015
lhumerus -35.9813 13.9647 77.8495
lradius 18.7317
lwrist 13.3381
lhand -18.303 11.1875
lfingers 7.12502
lthumb 7.97793 41.0169
rfemur 6.56306 6.65027 28.4075
rtibia 24.1135
rfoot 13.4666 -8.05913
rtoes -3.63492
lfemur -16.8924 6.77303 -18.6019
ltibia 20.3615
lfoot 20.2373 -10.6942
ltoes -20.9857
966
root -37.3104 18.13 -4.75739 139.285 95.212 137.479
lowerback 2.11505 -0.186807 4.02251
upperback 0.146362 -0.156906 -0.481266
thorax -1.04817 -0.0971276 -2.74591
lowerneck -5.96556 0.650136 1.97764
upperneck 14.4986 0.618338 1.42591
head 5.34934 0.572815 0.164086
rclavicle -9.44227e-016 5.1684e-015
rhumerus -36.1398 -5.02331 -86.6624
rradius 27.556
rwrist 0.969559
rhand -21.2482 -9.85599
rfingers 7.12502
rthumb 5.13474 -39.7738
lclavicle -9.44227e-016 5.1684e-015
lhumerus -35.9869 13.9002 77.8846
lradius 18.7816
lwrist 13.3757
lhand -18.3506 11.2079
lfingers 7.12502
lthumb 7.93194 41.0391
rfemur 6.32686 6.69021 28.52
rtibia 23.9465
rfoot 12.9165 -7.97052
rtoes -4.04995
lfemur -17.4052 6.67735 -18.5658
ltibia 20.2546
lfoot 21.2451 -10.3259
ltoes -20.561
